<svg id="visual" viewBox="0 0 900 600" width="900" height="600" xmlns="http://www.w3.org/2000/svg" xmlns:xlink="http://www.w3.org/1999/xlink" version="1.1"><rect x="0" y="0" width="900" height="600" fill="#001220"></rect><defs><linearGradient id="grad1_0" x1="33.3%" y1="100%" x2="100%" y2="0%"><stop offset="20%" stop-color="#001220" stop-opacity="1"></stop><stop offset="80%" stop-color="#001220" stop-opacity="1"></stop></linearGradient></defs><defs><linearGradient id="grad2_0" x1="0%" y1="100%" x2="66.7%" y2="0%"><stop offset="20%" stop-color="#001220" stop-opacity="1"></stop><stop offset="80%" stop-color="#001220" stop-opacity="1"></stop></linearGradient></defs><g transform="translate(900, 600)"><path d="M-351.5 0C-352.6 -50 -353.7 -100 -324.8 -134.5C-295.9 -169 -237.1 -188 -192.3 -192.3C-147.6 -196.7 -117 -186.5 -87.3 -210.6C-57.5 -234.8 -28.8 -293.1 0 -351.5L0 0Z" fill="#FBAE3C"></path></g><g transform="translate(0, 0)"><path d="M351.5 0C288 20.8 224.4 41.5 217.1 89.9C209.8 138.3 258.6 214.3 248.6 248.6C238.5 282.8 169.5 275.3 118.2 285.5C67 295.7 33.5 323.6 0 351.5L0 0Z" fill="#FBAE3C"></path></g></svg>